<svg xmlns="http://www.w3.org/2000/svg" width="283.46" height="62.77" viewBox="0 0 283.46 62.77">
  <title>nuanceAsset 2</title>
  <g id="Layer_2" data-name="Layer 2">
    <g id="Logo">
      <g>
        <path d="M29.88,6c0-2.23-1.55-2.52-2.23-2.52-6.24,0-17.94,14.32-25.09,30.32L0,43.48H20.17a5.16,5.16,0,0,1-1-3.42C19.21,34.43,29.89,9.17,29.88,6ZM5.42,23.21C10.6,14.72,17.85,3.44,26.53,0H11.62ZM36.89,0a5.39,5.39,0,0,1,2.36,4.9c0,2.91-1.27,6.89-4.08,13.89-2.53,6.5-5.73,14.57-5.73,17.58,0,1,.49,1.75,1.17,1.75,1.38,0,4.84-3,7.51-6.66L46.53,0Zm-.32,37.26a28.17,28.17,0,0,1-8,6.22h6.36Z" fill="#006eb9"/>
        <g>
          <path d="M259.1,31.81c-2.54,0-3.44-1.23-2.76-3.95l.84-3.15h23.36L283,15.55c1.39-5.23-.26-7.58-5.08-7.58H258.28c-4.82,0-7.74,2.35-9.13,7.58l-3.51,13.13c-1.4,5.24.26,7.59,5.08,7.59h25.89l1.19-4.46Zm.49-16a4.55,4.55,0,0,1,4.71-3.39h5.59c2.29.13,3.08,1.42,2.36,4.1l-1,3.73H258.37Z" fill="#333"/>
          <path d="M225.73,31.81c-2.42,0-3.34-1.11-2.86-3.53L226,16.52c.76-2.83,2.34-4.09,4.94-4.09h14.59L246.69,8h-21.8c-4.81,0-7.72,2.35-9.13,7.58l-3.5,13.13c-1.4,5.24.26,7.59,5.07,7.59h21.8l1.25-4.46Z" fill="#333"/>
          <path d="M150.41,31.81h-5.22c-2.54,0-3.44-1.22-2.77-3.93l.77-2.86c.77-2.7,2.33-3.93,4.88-3.93h9l-1.77,6.63C154.58,30.54,153,31.81,150.41,31.81ZM164,8H138.94l-1.05,4.21H158c1,0,1.41.36,1.15,1.33l-.48,1.8a1.68,1.68,0,0,1-1.86,1.33H142c-4.93,0-7.65,2.05-9.72,9.81s-.46,9.82,4.48,9.82h26.7l5.57-20.72C170.47,10.32,168.81,8,164,8Z" fill="#333"/>
          <path d="M83.31,8H56.85l-7.58,28.3H59.88l5.25-19.75c.76-2.83,2.34-4.09,4.94-4.09h4.84c2.61,0,3.5,1.26,2.75,4.09L72.4,36.27H82.82l5.56-20.72C89.78,10.32,88.12,8,83.31,8Z" fill="#333"/>
          <path d="M97,36.27h26.46L131,8H120.42l-5.25,19.74c-.76,2.83-2.34,4.1-4.94,4.1h-4.85c-2.6,0-3.5-1.27-2.74-4.1L107.9,8H97.47L91.91,28.68C90.51,33.92,92.17,36.27,97,36.27Z" fill="#333"/>
          <path d="M204.36,8H177.91l-7.59,28.3h10.61l5.26-19.75c.75-2.83,2.33-4.09,4.93-4.09H196c2.6,0,3.5,1.26,2.74,4.09l-5.25,19.75h10.42l5.56-20.72C210.84,10.32,209.18,8,204.36,8Z" fill="#333"/>
        </g>
      </g>
      <g>
        <path d="M127.63,50.7h1.29v8.93h4.3v1h-5.59Z"/>
        <path d="M136.37,50.7v10h-1.29v-10Z"/>
        <path d="M146.73,58.19A3.5,3.5,0,0,1,143,60.88c-3.24,0-4.34-2.69-4.34-5.2,0-3.86,2.24-5.19,4.34-5.19a3.43,3.43,0,0,1,3.55,2.45l-1.26.32A2.31,2.31,0,0,0,143,51.53c-2.26,0-3,2.25-3,4.15,0,1.5.35,4.16,3,4.16a2.36,2.36,0,0,0,2.41-2Z"/>
        <path d="M150.21,50.7v4.14h4.69V50.7h1.29v10H154.9V55.88h-4.69v4.79h-1.29v-10Z"/>
        <path d="M160.92,51.82H158V50.7h7.09v1.12h-2.9v8.85h-1.29Z"/>
        <path d="M171.59,48.77h.92v14h-.92Z"/>
        <path d="M181.37,51.82h-2.89V50.7h7.08v1.12h-2.9v8.85h-1.29Z"/>
        <path d="M186.69,55.68c0-3.86,2.25-5.19,4.34-5.19s4.34,1.27,4.34,5.19c0,2.51-1.09,5.2-4.34,5.2S186.69,58.19,186.69,55.68Zm7.31,0c0-1.9-.5-4.15-3-4.15-2.26,0-3,2.25-3,4.15,0,1.5.35,4.16,3,4.16S194,57.18,194,55.68Z"/>
        <path d="M197.76,50.7h1.7l4,7a12.29,12.29,0,0,1,.67,1.37h.07c0-.34-.07-.81-.07-1.25V50.7h1.29v10H203.7l-4-7c-.2-.37-.54-1-.67-1.38H199c0,.34.07.82.07,1.25v7.17h-1.28Z"/>
        <path d="M212.9,48.77h.93v14h-.93Z"/>
        <path d="M221.25,50.7h6v1h-4.71V55H227v1h-4.47v3.61h4.85v1h-6.13Z"/>
        <path d="M229.73,50.7h6v1H231v3.43h4.46v1H231v4.47h-1.29Z"/>
        <path d="M238.21,50.7h6v1H239.5v3.43H244v1H239.5v4.47h-1.29Z"/>
        <path d="M246.7,50.7h6v1H248V55h4.46v1H248v3.61h4.84v1H246.7Z"/>
        <path d="M255.18,50.7h1.29v4.44l4-4.44h1.65l-4.38,4.73,4.66,5.24H260.7l-4.23-4.86v4.86h-1.29Z"/>
        <path d="M266.14,51.82h-2.89V50.7h7.08v1.12h-2.9v8.85h-1.29Z"/>
      </g>
    </g>
  </g>
</svg>
