<?xml version="1.0" encoding="utf-8"?>
<!-- Generator: Adobe Illustrator 26.5.0, SVG Export Plug-In . SVG Version: 6.00 Build 0)  -->
<svg version="1.1" id="grand-chasseral" xmlns="http://www.w3.org/2000/svg" xmlns:xlink="http://www.w3.org/1999/xlink" x="0px"
	 y="0px" width="310px" height="96px" viewBox="0 0 310 96" style="enable-background:new 0 0 310 96;" xml:space="preserve">
<style type="text/css">
	.st0{fill:#E1251B;}
	.st1{fill:#FFFFFF;}
	.st2{fill:#004581;}
	.st3{fill:url(#SVGID_1_);}
	.st4{fill:url(#SVGID_00000026885773275192258360000000737308691705291656_);}
	.st5{fill:url(#SVGID_00000111162674594609139130000010230978882598096280_);}
	.st6{fill:url(#SVGID_00000149342832040140547570000014538316481679309964_);}
	.st7{fill:url(#SVGID_00000116198213681983557440000014707321962026387638_);}
	.st8{fill:url(#SVGID_00000048459703197712366010000010505662475096136861_);}
	.st9{fill:url(#SVGID_00000109751146892003189950000011276388348091198357_);}
	.st10{fill:url(#SVGID_00000067238037234261743520000002662479748444709300_);}
	.st11{fill:url(#SVGID_00000004540816508982020170000008565657606829304967_);}
</style>
<g>
	<g>
		<g>
			<rect x="298.6434" y="47.9973" class="st0" width="11.3566" height="11.3566"/>
			<path id="path3172_00000152260047408753663950000005576202987553137832_" class="st1" d="M300.6124,52.5628h2.5965v-2.5965
				h2.2256v2.5965h2.5965v2.2256h-2.5965v2.5965h-2.2256v-2.5965h-2.5965V52.5628z"/>
		</g>
		<g>
			<path class="st2" d="M121.7491,68.0411l3.8026,2.0759c-2.261,3.8497-6.6458,6.6049-12.7091,6.6049
				c-8.9752,0-14.6275-5.3215-14.6275-14.0023s5.6523-14.0026,14.7987-14.0026c5.8921,0,10.2769,2.793,12.5036,6.5673
				l-3.8367,2.1135c-1.7813-3.2459-4.8301-4.6802-8.7354-4.6802c-6.3374,0-10.551,3.3968-10.551,10.002
				c0,6.6049,4.2135,10.0017,10.551,10.0017C116.8504,72.7213,119.9335,71.3246,121.7491,68.0411z"/>
			<path class="st2" d="M199.5392,69.8529c0,3.8497-3.4256,6.8691-10.037,6.8691c-4.5904,0-8.5985-1.6605-11.3047-4.2648
				l2.1582-2.6043c2.1924,2.0759,5.2412,3.4347,9.2492,3.4347c3.4599,0,6.1319-0.9813,6.1319-3.0572s-2.4322-2.7176-6.8512-3.0951
				c-5.1043-0.4151-9.9687-1.736-9.9687-6.152c0-4.0385,3.7682-6.5294,10.0714-6.5294c3.8368,0,7.4337,1.5097,9.6261,3.2835
				l-2.0896,2.8684c-1.8157-1.5472-4.3163-2.6797-7.742-2.7173c-2.5349,0-6.0633,0.5659-6.0633,2.8306
				c0,2.1135,2.9802,2.491,6.817,2.7551C195.2914,63.9272,199.5392,65.6635,199.5392,69.8529z"/>
			<path class="st2" d="M222.6628,69.8529c0,3.8497-3.4256,6.8691-10.0372,6.8691c-4.5902,0-8.5983-1.6605-11.3045-4.2648
				l2.1582-2.6043c2.1924,2.0759,5.2412,3.4347,9.2492,3.4347c3.4599,0,6.1319-0.9813,6.1319-3.0572s-2.4322-2.7176-6.8512-3.0951
				c-5.1043-0.4151-9.9687-1.736-9.9687-6.152c0-4.0385,3.7682-6.5294,10.0714-6.5294c3.8368,0,7.4337,1.5097,9.6261,3.2835
				l-2.0896,2.8684c-1.8157-1.5472-4.3164-2.6797-7.7421-2.7173c-2.5349,0-6.0633,0.5659-6.0633,2.8306
				c0,2.1135,2.9802,2.491,6.817,2.7551C218.4151,63.9272,222.6628,65.6635,222.6628,69.8529z"/>
			<path class="st2" d="M236.9142,73.2497c3.4599,0,5.618-0.9813,7.6734-2.9818l2.3293,2.7551
				c-2.5691,2.5288-5.8235,3.6989-10.2083,3.6989c-7.5021,0-11.8185-4.3027-11.8185-11.0963
				c0-6.8691,4.3164-11.1717,11.5445-11.1717c6.7484,0,11.1332,3.8876,11.1332,11.1342c0,0.4905-0.0341,0.7547-0.1028,0.9813
				h-18.6353C229.2065,71.0605,232.1868,73.2497,236.9142,73.2497z M229.001,63.4367l14.696-0.0379
				c-0.8566-3.7743-3.5284-5.4727-7.2281-5.4727C232.5294,57.9262,229.7546,59.7757,229.001,63.4367z"/>
			<path class="st2" d="M290.6752,75.9294V47.9999h3.9737v27.9295H290.6752z"/>
			<path class="st2" d="M181.721,24.815c-3.8366,0-6.9197,1.8114-8.5641,4.7553v-4.0006h-4.008v20.6829h4.008V34.2594
				c-0.0082-0.5787,0.2059-1.115,0.3827-1.4581c1.6384-2.9013,4.1753-4.3253,7.1538-4.3253c3.7339,0,5.618,2.1889,5.618,6.2653
				v11.5114h3.9737V34.4392C190.2851,28.8532,187.4418,24.815,181.721,24.815z"/>
			<path class="st2" d="M141.7558,54.4921c-3.8366,0-6.9197,1.8114-8.5641,4.7553V48.0008h-4.008v27.929h4.008V63.9365
				c-0.0083-0.5787,0.2059-1.115,0.3827-1.4581c1.6384-2.9013,4.1753-4.3253,7.1538-4.3253c3.7339,0,5.618,2.1889,5.618,6.2653
				v11.5114h3.9737V64.1163C150.3199,58.5303,147.4766,54.4921,141.7558,54.4921z"/>
			<path class="st2" d="M133.1777,30.2874v-4.7177h-4.008v20.6829h4.008V35.3297l0.0002,0.0001
				c0.0263-0.4975,0.1667-0.9608,0.3009-1.3007c0.0823-0.1901,0.1685-0.3766,0.262-0.5558
				c0.0001-0.0002,0.0019-0.0034,0.0019-0.0034l-0.0002-0.0002c1.5589-2.985,4.6433-4.4653,8.3076-4.4653v-3.8497
				C138.1792,25.1546,134.685,26.9663,133.1777,30.2874z"/>
			<path class="st2" d="M255.1522,59.9637V55.246h-4.0079v20.6829h4.0079V65.0059l0.0002,0.0001
				c0.0263-0.4975,0.1667-0.9608,0.3009-1.3007c0.0823-0.1901,0.1685-0.3766,0.262-0.5558
				c0.0001-0.0002,0.0019-0.0034,0.0019-0.0034l-0.0003-0.0002c1.5589-2.985,4.6433-4.4653,8.3076-4.4653v-3.8497
				C260.1536,54.8309,256.6595,56.6426,255.1522,59.9637z"/>
			<path class="st2" d="M212.4757,18.3231v10.9454c-1.6101-2.6042-4.6246-4.4535-8.6327-4.4535
				c-6.0975,0-10.1399,4.4157-10.1399,11.1338c0,6.6806,4.0423,11.0587,10.1399,11.0587c4.0081,0,7.0225-1.8496,8.6327-4.416v3.661
				h4.008V18.3231H212.4757z M204.8708,43.2709c-4.6588,0-7.2623-2.6418-7.2623-7.322c0-4.7556,2.6035-7.3598,7.2623-7.3598
				c2.8683,0,5.3867,0.9949,7.1587,3.5348c0.1945,0.3161,0.4627,0.8948,0.4462,1.6783l0.0001-0.0001v4.2222l-0.0001-0.0001
				c0.016,0.759-0.2362,1.3288-0.4289,1.6511C210.2739,42.2381,207.7483,43.2709,204.8708,43.2709z"/>
			<path class="st2" d="M164.0692,42.2547l0.0083-0.0023v-7.5107c0-6.4919-4.0081-9.9262-10.5511-9.9262
				c-3.3913,0-6.9882,1.0189-9.3177,2.5664l1.4387,2.9817c2.1582-1.3966,4.3506-2.0759,7.1254-2.0759
				c4.8302,0,7.2966,2.0002,7.2966,6.454v1.5097c-1.4729-2.0005-4.3506-3.6989-8.1872-3.6989c-4.0423,0-9.4205,1.8117-9.4205,7.209
				c0,5.4348,5.3782,7.2466,9.4205,7.2466c3.8307,0,6.705-1.6933,8.18-3.6897v0.0287c0,0.9813,0.2397,1.9999,0.7193,2.9055h4.1438
				C164.3092,45.0455,164.0694,43.8007,164.0692,42.2547z M152.6358,43.8376c-2.5006,0-6.2346-0.7171-6.2346-4.076
				c0-3.3214,3.734-4.0385,6.2346-4.0385c2.7429,0,5.8406,0.833,7.3885,3.5424c0.0409,0.0922,0.1072,0.2733,0.1138,0.5121v0.0034
				c-0.0065,0.2383-0.0726,0.4191-0.1135,0.5115C158.4767,42.9686,155.3788,43.8376,152.6358,43.8376z"/>
			<path class="st2" d="M174.8658,71.931l0.0083-0.0023V64.418c0-6.4919-4.0081-9.9262-10.5511-9.9262
				c-3.3913,0-6.9882,1.0189-9.3177,2.5664l1.4387,2.9817c2.1582-1.3966,4.3506-2.0759,7.1254-2.0759
				c4.8302,0,7.2966,2.0002,7.2966,6.454v1.5097c-1.4729-2.0005-4.3506-3.6989-8.1872-3.6989c-4.0423,0-9.4205,1.8117-9.4205,7.209
				c0,5.4348,5.3782,7.2466,9.4205,7.2466c3.8307,0,6.705-1.6933,8.18-3.6897v0.0287c0,0.9813,0.2397,1.9999,0.7193,2.9055h4.1438
				C175.1057,74.7217,174.866,73.477,174.8658,71.931z M163.4323,73.5138c-2.5006,0-6.2346-0.7171-6.2346-4.076
				c0-3.3214,3.734-4.0385,6.2346-4.0385c2.7429,0,5.8406,0.833,7.3885,3.5424c0.0409,0.0922,0.1072,0.2733,0.1138,0.5121v0.0034
				c-0.0065,0.2383-0.0726,0.4191-0.1135,0.5115C169.2733,72.6448,166.1753,73.5138,163.4323,73.5138z"/>
			<path class="st2" d="M286.0384,71.931l0.0083-0.0023V64.418c0-6.4919-4.0081-9.9262-10.5511-9.9262
				c-3.3913,0-6.9882,1.0189-9.3177,2.5664l1.4387,2.9817c2.1582-1.3966,4.3506-2.0759,7.1254-2.0759
				c4.8302,0,7.2966,2.0002,7.2966,6.454v1.5097c-1.4729-2.0005-4.3506-3.6989-8.1872-3.6989c-4.0424,0-9.4206,1.8117-9.4206,7.209
				c0,5.4348,5.3782,7.2466,9.4206,7.2466c3.8307,0,6.705-1.6933,8.18-3.6897v0.0287c0,0.9813,0.2397,1.9999,0.7193,2.9055h4.1438
				C286.2783,74.7217,286.0386,73.477,286.0384,71.931z M274.6049,73.5138c-2.5006,0-6.2346-0.7171-6.2346-4.076
				c0-3.3214,3.7339-4.0385,6.2346-4.0385c2.7429,0,5.8406,0.833,7.3885,3.5424c0.0409,0.0922,0.1072,0.2733,0.1138,0.5121v0.0034
				c-0.0065,0.2383-0.0726,0.4191-0.1135,0.5115C280.4459,72.6448,277.3479,73.5138,274.6049,73.5138z"/>
			<g>
				<path class="st2" d="M125.4677,31.9482h-13.9766v3.8873h10.0028v3.0196c-0.751,3.1244-3.787,4.2269-8.0005,4.2269
					c-6.8856,0-11.0991-3.3968-11.0991-10.0393c0-6.6427,4.145-10.0396,10.8936-10.0396c4.008,0,6.817,1.2833,8.9408,3.9252
					l3.3572-2.6418c-2.398-2.8309-6.4403-5.2464-12.3324-5.2464c-9.3862,0-15.0385,5.284-15.0385,14.0026
					c0,8.7183,5.6523,14.0023,15.1071,14.0023c6.1222,0,9.4064-1.7223,11.6591-5.7766c0.4032-0.8205,0.475-1.7449,0.4865-2.1017
					V31.9482z"/>
			</g>
		</g>
	</g>
	<g>
		<linearGradient id="SVGID_1_" gradientUnits="userSpaceOnUse" x1="91.1814" y1="54.4802" x2="49.6442" y2="2.0909">
			<stop  offset="0" style="stop-color:#80C3C0"/>
			<stop  offset="0.2264" style="stop-color:#98C3A9"/>
			<stop  offset="0.7018" style="stop-color:#D5C66C"/>
			<stop  offset="1" style="stop-color:#FFC844"/>
		</linearGradient>
		<path class="st3" d="M53.7854,23.6024c4.9644-2.2643,10.5656-2.8103,15.8112-1.6154c0.7289,2.4912,0.9991,5.0895,0.8096,7.659
			c2.0657,0.4984,4.175,1.2727,6.0297,2.2076c0.4068-2.3336,0.4772-4.7099,0.2107-7.0598c-0.2976-2.6241-1.014-5.2095-2.1512-7.6476
			c-7.3821-3.4295-16.1245-3.0041-23.1816,1.2547C52.3573,20,53.1936,21.7469,53.7854,23.6024z"/>
		
			<linearGradient id="SVGID_00000095307870513188836520000018095129183964859799_" gradientUnits="userSpaceOnUse" x1="88.0377" y1="59.4797" x2="44.2122" y2="4.2043">
			<stop  offset="0" style="stop-color:#80C3C0"/>
			<stop  offset="0.2264" style="stop-color:#98C3A9"/>
			<stop  offset="0.7018" style="stop-color:#D5C66C"/>
			<stop  offset="1" style="stop-color:#FFC844"/>
		</linearGradient>
		<path style="fill:url(#SVGID_00000095307870513188836520000018095129183964859799_);" d="M68.0582,37.9161
			c5.1115,1.9093,9.4495,5.4909,12.3137,10.0451c-1.2461,2.277-2.8632,4.2606-4.8141,5.9435
			c1.1083,1.8131,2.0522,3.8521,2.7027,5.8246c1.9377-1.3625,3.6679-2.993,5.1411-4.843c1.6451-2.0659,2.9666-4.4007,3.8866-6.9288
			c-2.7949-7.645-9.2776-13.5259-17.279-15.5047C69.616,34.3213,68.9518,36.1856,68.0582,37.9161z"/>
		
			<linearGradient id="SVGID_00000109018347739933680150000000379861945526421679_" gradientUnits="userSpaceOnUse" x1="71.1701" y1="74.0704" x2="27.0864" y2="18.4694">
			<stop  offset="0" style="stop-color:#80C3C0"/>
			<stop  offset="0.2264" style="stop-color:#98C3A9"/>
			<stop  offset="0.7018" style="stop-color:#D5C66C"/>
			<stop  offset="1" style="stop-color:#FFC844"/>
		</linearGradient>
		<path style="fill:url(#SVGID_00000109018347739933680150000000379861945526421679_);" d="M68.0505,58.123
			c2.2643,4.9644,2.8027,10.6003,1.6077,15.8459c-2.4912,0.7289-5.0863,0.9978-7.6558,0.8082
			c-0.4984,2.0658-1.2683,4.1416-2.2032,5.9963c2.3336,0.4068,4.7099,0.4772,7.0598,0.2107
			c2.6241-0.2976,5.2095-1.014,7.6476-2.1512c3.4295-7.3821,3.0041-16.1245-1.2547-23.1816
			C71.6529,56.6948,69.906,57.5312,68.0505,58.123z"/>
		
			<linearGradient id="SVGID_00000028295973893852331660000016089083492411600562_" gradientUnits="userSpaceOnUse" x1="41.9452" y1="99.3478" x2="0.408" y2="46.9585">
			<stop  offset="0" style="stop-color:#80C3C0"/>
			<stop  offset="0.2264" style="stop-color:#98C3A9"/>
			<stop  offset="0.7018" style="stop-color:#D5C66C"/>
			<stop  offset="1" style="stop-color:#FFC844"/>
		</linearGradient>
		<path style="fill:url(#SVGID_00000028295973893852331660000016089083492411600562_);" d="M33.4947,72.401
			c-4.9644,2.2643-10.5656,2.8103-15.8112,1.6154c-0.7289-2.4912-0.9991-5.0895-0.8096-7.659
			c-2.0657-0.4984-4.175-1.2727-6.0297-2.2076c-0.4068,2.3336-0.4772,4.7099-0.2107,7.0598
			c0.2976,2.6241,1.014,5.2095,2.1512,7.6476c7.3821,3.4295,16.1245,3.0041,23.1816-1.2547
			C34.9229,76.0035,34.0865,74.2566,33.4947,72.401z"/>
		
			<linearGradient id="SVGID_00000052819784023741348220000004768586336300312734_" gradientUnits="userSpaceOnUse" x1="47.6407" y1="97.5108" x2="3.8152" y2="42.2354">
			<stop  offset="0" style="stop-color:#80C3C0"/>
			<stop  offset="0.2264" style="stop-color:#98C3A9"/>
			<stop  offset="0.7018" style="stop-color:#D5C66C"/>
			<stop  offset="1" style="stop-color:#FFC844"/>
		</linearGradient>
		<path style="fill:url(#SVGID_00000052819784023741348220000004768586336300312734_);" d="M19.2094,58.0791
			C14.098,56.1699,9.7512,52.5954,6.887,48.0412c1.2461-2.277,2.8924-4.3054,4.8433-5.9883
			c-1.1083-1.8131-2.0522-3.8521-2.7027-5.8246c-1.9377,1.3625-3.6679,2.993-5.1411,4.843C2.2415,43.1372,0.9199,45.472,0,48.0001
			c2.7949,7.645,9.2776,13.5259,17.279,15.5047C17.672,61.6363,18.3158,59.8096,19.2094,58.0791z"/>
		
			<linearGradient id="SVGID_00000036247141563208589000000007289458992196916895_" gradientUnits="userSpaceOnUse" x1="64.7851" y1="83.2866" x2="20.7014" y2="27.6856">
			<stop  offset="0" style="stop-color:#80C3C0"/>
			<stop  offset="0.2264" style="stop-color:#98C3A9"/>
			<stop  offset="0.7018" style="stop-color:#D5C66C"/>
			<stop  offset="1" style="stop-color:#FFC844"/>
		</linearGradient>
		<path style="fill:url(#SVGID_00000036247141563208589000000007289458992196916895_);" d="M19.2388,37.8536
			c-2.2643-4.9644-2.8103-10.5656-1.6154-15.8112c2.4912-0.7289,5.0895-0.9991,7.659-0.8096
			c0.4984-2.0657,1.2727-4.175,2.2076-6.0297c-2.3336-0.4068-4.7099-0.4772-7.0598-0.2107
			c-2.6241,0.2976-5.2095,1.014-7.6476,2.1512c-3.4295,7.3821-3.0041,16.1245,1.2547,23.1816
			C15.6364,39.2817,17.3832,38.4453,19.2388,37.8536z"/>
		
			<linearGradient id="SVGID_00000139972655175841243770000017447146416838371210_" gradientUnits="userSpaceOnUse" x1="67.1079" y1="77.5921" x2="24.5853" y2="23.9601">
			<stop  offset="0" style="stop-color:#80C3C0"/>
			<stop  offset="0.2264" style="stop-color:#98C3A9"/>
			<stop  offset="0.7018" style="stop-color:#D5C66C"/>
			<stop  offset="1" style="stop-color:#FFC844"/>
		</linearGradient>
		<path style="fill:url(#SVGID_00000139972655175841243770000017447146416838371210_);" d="M27.3915,27.1054l-0.0004,6.6979
			c-0.0031,1.9099,1.1482,3.5668,2.8018,4.2651l29.4329,12.2234c3.7507,1.5406,6.3843,5.1714,6.3843,9.3717
			c0,4.0976-2.5171,7.6291-6.1269,9.2296l0.0003-6.704c0.0081-1.9099-1.1252-3.5584-2.7788-4.2566l-29.437-12.2214
			c-3.7507-1.5406-6.3844-5.1716-6.3844-9.3719C21.2832,32.2416,23.7867,28.706,27.3915,27.1054z"/>
		
			<linearGradient id="SVGID_00000093156786136442066170000006759697856752524215_" gradientUnits="userSpaceOnUse" x1="78.8894" y1="67.4981" x2="35.7697" y2="13.1129">
			<stop  offset="0" style="stop-color:#80C3C0"/>
			<stop  offset="0.2264" style="stop-color:#98C3A9"/>
			<stop  offset="0.7018" style="stop-color:#D5C66C"/>
			<stop  offset="1" style="stop-color:#FFC844"/>
		</linearGradient>
		<path style="fill:url(#SVGID_00000093156786136442066170000006759697856752524215_);" d="M60.0453,31.9388
			c3.5191,1.6415,5.9479,5.21,5.9479,9.2516c0,4.1032-2.5038,7.6022-6.1098,9.2112l0.0004-6.7227
			c0.04-1.8894-1.1112-3.5463-2.7648-4.2446l-29.7275-12.329c0.0084-2.8621,0.7563-5.4857,0.7563-5.4857
			c1.9813-7.9966,7.8489-14.4625,15.4905-17.2561c2.5281,0.9199,4.8629,2.2415,6.9288,3.8865
			c1.85,1.4732,3.4806,3.2033,4.843,5.1411c-1.9725,0.6505-4.0115,1.5944-5.8246,2.7027c-1.6829-1.9509-3.7112-3.5971-5.9883-4.8433
			c-2.8683,1.8039-5.344,4.1846-7.2596,6.9755c-0.5357,0.7814-0.8112,1.4579-0.8112,1.4579
			c-0.6251,1.4691-0.5676,1.8517,0.5255,2.2924L60.0453,31.9388z"/>
		
			<linearGradient id="SVGID_00000085220952280614572400000017823800431841473687_" gradientUnits="userSpaceOnUse" x1="55.9839" y1="88.5333" x2="12.8605" y2="34.1434">
			<stop  offset="0" style="stop-color:#80C3C0"/>
			<stop  offset="0.2264" style="stop-color:#98C3A9"/>
			<stop  offset="0.7018" style="stop-color:#D5C66C"/>
			<stop  offset="1" style="stop-color:#FFC844"/>
		</linearGradient>
		<path style="fill:url(#SVGID_00000085220952280614572400000017823800431841473687_);" d="M27.2324,64.0612
			c-3.5191-1.6415-5.9479-5.21-5.9479-9.2516c0-4.1032,2.5038-7.6101,6.1075-9.2167l-0.0004,6.7306
			c-0.0376,1.887,1.1136,3.5439,2.7672,4.2422l29.7247,12.3276c-0.0084,2.8621-0.7534,5.4871-0.7534,5.4871
			c-1.9813,7.9966-7.8489,14.4625-15.4905,17.2561c-2.5281-0.9199-4.8629-2.2415-6.9288-3.8866
			c-1.85-1.4732-3.4806-3.2033-4.843-5.1411c1.9725-0.6505,4.0115-1.5944,5.8246-2.7027c1.6829,1.9509,3.7112,3.5971,5.9883,4.8433
			c2.8683-1.8039,5.344-4.1846,7.2596-6.9755c0.5357-0.7814,0.8112-1.4579,0.8112-1.4579c0.6251-1.4691,0.5676-1.8517-0.5255-2.2924
			L27.2324,64.0612z"/>
	</g>
</g>
</svg>
