<?xml version="1.0" encoding="utf-8"?>
<!-- Generator: Adobe Illustrator 21.1.0, SVG Export Plug-In . SVG Version: 6.00 Build 0)  -->
<svg version="1.1" id="Ebene_1" xmlns="http://www.w3.org/2000/svg" xmlns:xlink="http://www.w3.org/1999/xlink" x="0px" y="0px"
	 viewBox="0 0 680.3 510.2" style="enable-background:new 0 0 680.3 510.2;" xml:space="preserve">
<style type="text/css">
	.st0{fill:none;stroke:#004494;stroke-width:23.5871;stroke-miterlimit:1;}
	.st1{fill:#004494;}
	.st2{fill-rule:evenodd;clip-rule:evenodd;}
</style>
<g>
	<path class="st0" d="M145.5,320.9c-44.9-58.2,13.6-157.7,130.6-222.3c117-64.6,248.2-69.7,293-11.5
		c44.9,58.2-13.6,157.7-130.6,222.3C321.5,374,190.3,379.1,145.5,320.9L145.5,320.9z"/>
	<path class="st1" d="M430.2,198.1c0,0,53.3-3.7,51.1-46.1c-1.9-36.6-70.9-34.3-70.9-34.3l-125.3,0l-42.2,174.1l115.3,0
		c0,0,122.5,1.7,111.8-62.6C466.2,206.3,430.2,198.1,430.2,198.1z M387.3,232.1c-2.3,26.1-53.9,19.4-53.9,19.4l9.9-39.7
		C343.3,211.7,389.7,204,387.3,232.1z M349.3,183.7l8.5-32.5l14.7-0.1c12.2-0.1,27.7,2.2,27.7,14.4
		C400.2,190.8,349.3,183.7,349.3,183.7z"/>
	<path class="st2" d="M283.8,429.8c2.4-11.1-4.9-15.1-13.7-15.1h-45l-12.7,60h42.8c18.1,0,24-10.2,25.7-18.1
		c1.4-6.5-0.9-13.4-7.6-14.5l0-0.2C279.3,440,282.9,434.4,283.8,429.8z M263.6,456.2c-0.8,3.8-3.4,7.1-8.5,7.1h-24l3-14.3h22.3
		C262.2,448.9,264.6,451.5,263.6,456.2z M266.6,432.1c-0.9,4.5-3.7,6.5-7.5,6.5h-22.7l2.7-12.9h20.4
		C266.3,425.6,267.4,428.3,266.6,432.1z"/>
	<path class="st2" d="M284.2,474.6H299l9.6-45h-14.8L284.2,474.6L284.2,474.6z M294.9,424.1h14.8l2.2-10.4h-14.8L294.9,424.1
		L294.9,424.1z"/>
	<path class="st2" d="M344,427.9c-17.8,0-31.3,7.2-34.9,24.2c-3.6,17,6.8,24.2,24.6,24.2c13.5,0,24.7-4.5,31.3-15.1h-15.8
		c-2.9,3.9-7.5,5.9-13.5,5.9c-10.1,0-13.1-6.6-12.1-10.8l0-0.2h43.3l0.3-1.3C370.8,437.8,363.5,427.9,344,427.9z M353.5,447.2l0,0.2
		h-28.1l0-0.2c0.2-1.1,4.6-10,16.2-10C352.6,437.2,354.1,444.7,353.5,447.2z"/>
	<polygon points="368.4,474.6 383.1,474.6 396.1,413.7 381.3,413.7 368.4,474.6 	"/>
	<path class="st2" d="M391,474.6h14.8l9.6-45h-14.8L391,474.6L391,474.6z M401.8,424.1h14.8l2.2-10.4H404L401.8,424.1L401.8,424.1z"
		/>
	<path d="M451.1,474.6h14.8l6.4-30c2.8-13.3-8.2-16.2-15.9-16.2c-8.7,0-16.5,3.9-20,7.7h-0.2l1.4-6.6h-14.3l-9.6,45h14.8l4.6-21.8
		c2-9.6,8.6-13,15.5-13c6.6,0,9.3,3,7.9,9.2L451.1,474.6L451.1,474.6z"/>
	<path class="st2" d="M525.3,429.6l-1.2,5.5H524c-2.8-4.8-9.2-6.6-15.7-6.6c-18.8,0-29,10.2-31.6,22.5c-2.5,11.6,3.2,22.5,20.8,22.5
		c7.5,0,14.2-1.9,19.4-6.6l-0.8,3.6c-2.3,10.9-9,12.9-16.3,12.9c-8.6,0-11-1.9-11.2-5.6h-15.8c-1.4,13.6,13.4,14.9,24.5,14.9
		c18.8,0,30.2-6,33.5-21.5l8.8-41.4H525.3z M520.2,451.2c-2.2,10.3-10.3,12.3-16.8,12.3c-6.5,0-13.7-2-11.5-12.3
		c2.2-10.3,10.3-12.3,16.7-12.3C515.2,438.9,522.4,440.9,520.2,451.2z"/>
	<path d="M574.8,474.6h14.3l9.6-45h-14.8l-4.8,22.5c-1.8,8.3-7.2,12.8-15.2,12.8c-6.8,0-9.4-3-8.1-9.2l5.5-26h-14.8l-6.5,30.5
		c-2.8,13.3,8.2,16.2,15.9,16.2c8.7,0,16.5-3.9,20-7.7h0.2L574.8,474.6L574.8,474.6z"/>
	<path class="st2" d="M634.1,427.9c-17.8,0-31.3,7.2-34.9,24.2c-3.6,17,6.8,24.2,24.6,24.2c13.5,0,24.7-4.5,31.3-15.1h-15.8
		c-2.9,3.9-7.5,5.9-13.5,5.9c-10.1,0-13.1-6.6-12.1-10.8l0-0.2H657l0.3-1.3C660.9,437.8,653.6,427.9,634.1,427.9z M643.6,447.2
		l0,0.2h-28.1l0-0.2c0.2-1.1,4.6-10,16.2-10C642.6,437.2,644.1,444.7,643.6,447.2z"/>
	<polygon points="30.1,474.6 46.4,474.6 56.7,426.1 79,426.1 81.4,414.7 20.6,414.7 18.2,426.1 40.4,426.1 30.1,474.6 	"/>
	<path class="st2" d="M100.8,427.9c-17.8,0-31.3,7.2-34.9,24.2c-3.6,17,6.8,24.2,24.6,24.2c13.5,0,24.7-4.5,31.3-15.1H106
		c-2.9,3.9-7.5,5.9-13.5,5.9c-10.1,0-13.1-6.6-12.1-10.8l0-0.2h43.3l0.3-1.3C127.6,437.8,120.3,427.9,100.8,427.9z M110.3,447.2
		l0,0.2H82.3l0-0.2c0.2-1.1,4.6-10,16.2-10C109.4,437.2,110.9,444.7,110.3,447.2z"/>
	<polygon points="125.2,474.6 139.9,474.6 152.9,413.7 138.1,413.7 125.2,474.6 	"/>
	<path class="st2" d="M185,427.9c-17.8,0-31.3,7.2-34.9,24.2c-3.6,17,6.8,24.2,24.6,24.2c13.5,0,24.7-4.5,31.3-15.1h-15.8
		c-2.9,3.9-7.5,5.9-13.5,5.9c-10.1,0-13.1-6.6-12.1-10.8l0-0.2h43.3l0.3-1.3C211.8,437.8,204.5,427.9,185,427.9z M194.5,447.2l0,0.2
		h-28.1l0-0.2c0.2-1.1,4.6-10,16.2-10C193.5,437.2,195,444.7,194.5,447.2z"/>
</g>
</svg>
